<svg width="190" height="190" viewBox="0 0 190 190" fill="none" xmlns="http://www.w3.org/2000/svg">
<path d="M0 25C0 11.1929 11.1929 0 25 0H165C178.807 0 190 11.1929 190 25V165C190 178.807 178.807 190 165 190H25C11.1929 190 0 178.807 0 165V25Z" fill="#242222"/>
<path d="M162.52 123.883C160.648 121.805 107.324 54.4674 107.324 54.4674L119.537 32.9234C120.532 31.1683 121.062 29.1257 120.55 27.1743C118.181 18.1473 109.355 17.7353 105.348 19.7999C104.477 20.2487 103.894 21.0631 103.411 21.9154L86.9727 50.9123C86.4927 51.759 86.1089 52.661 86.0325 53.6313C85.728 57.4972 87.701 60.6817 88.5346 61.6071L106.113 85.297L89.2713 100.658C87.3223 97.211 81.761 86.9221 79.2833 82.3294C78.4822 80.8445 77.7325 79.2113 76.4296 78.1393C74.5009 76.5524 71.1595 74.7445 68.013 75.3896C66.5392 75.6917 39.5831 79.7693 27.7986 82.1014C26.5103 82.3563 25.2711 82.8642 24.2652 83.7085C13.4469 92.789 23.8011 104.563 30.0473 104.699C34.9847 104.957 62.9428 100.473 62.9428 100.473L71.9938 116.788C57.5471 116.642 49.1586 116.644 41.9184 118.825C40.621 119.216 39.4672 119.949 38.4904 120.888C32.361 126.78 16.3861 142.518 15.7024 144.35C10.8227 157.419 25.8257 165.924 34.1798 158.383L48.5193 144.703C50.6581 142.662 53.5847 141.67 56.528 141.945C66.5268 142.879 85.4554 144.421 88.763 144.594C92.8982 144.809 99.9462 142.801 102.845 140.377C105.744 137.954 131.396 116.914 131.396 116.914C135.029 121.521 136.85 123.493 140.32 128.073C138.46 129.56 121.665 144.438 118.938 146.959C110.431 154.827 124.016 168.888 131.44 161.671C138.863 154.454 155.815 140.193 160.312 135.848C164.809 131.503 164.392 125.961 162.52 123.883Z" fill="white"/>
<path d="M170.98 79.3712C166.162 87.8696 155.367 90.8533 146.868 86.0355C138.37 81.2177 135.386 70.4228 140.204 61.9244C145.022 53.426 155.817 50.4423 164.315 55.2601C172.814 60.0779 175.797 70.8728 170.98 79.3712Z" fill="white"/>
</svg>
